<svg xmlns="http://www.w3.org/2000/svg" version="1.1" xmlns:xlink="http://www.w3.org/1999/xlink" xmlns:svgjs="http://svgjs.dev/svgjs" width="1500" height="1500" viewBox="0 0 1500 1500"><rect width="1500" height="1500" fill="#000000"></rect><g transform="matrix(0.24563989191844757,0,0,0.24563989191844757,566.2356480646454,250.4048582995954)"><svg viewBox="0 0 91 247" data-background-color="#fafafa" preserveAspectRatio="xMidYMid meet" height="4071" width="1500" xmlns="http://www.w3.org/2000/svg" xmlns:xlink="http://www.w3.org/1999/xlink"><g id="tight-bounds" transform="matrix(1,0,0,1,-0.1149829451177311,-0.09999999999999432)"><svg viewBox="0 0 91.22996589023552 247.2" height="247.2" width="91.22996589023552"><g><svg viewBox="0 0 128.10084033613444 347.1066488087085" height="247.2" width="91.22996589023552"><g transform="matrix(1,0,0,1,0,99.90664880870851)"><svg viewBox="0 0 128.10084033613444 247.19999999999996" height="247.19999999999996" width="128.10084033613444"><g id="textblocktransform"><svg viewBox="0 0 128.10084033613444 247.19999999999996" height="247.19999999999996" width="128.10084033613444" id="textblock"><g><svg viewBox="0 0 128.10084033613444 247.19999999999996" height="247.19999999999996" width="128.10084033613444"><g transform="matrix(1,0,0,1,0,0)"><svg width="128.10084033613444" viewBox="0.98 -34.86 18.06 34.86" height="247.19999999999996" data-palette-color="#130912"><path d="M5.96-9.67L4.44 0 0.98 0 6.49-34.86 13.48-34.86 19.04 0 15.58 0 14.06-9.67 5.96-9.67ZM9.06-31.74L7.37-20.39 6.27-12.79 13.75-12.79 12.7-20.41 10.99-31.74 9.06-31.74Z" opacity="1" transform="matrix(1,0,0,1,0,0)" fill="#ffffff" class="wordmark-text-0" data-fill-palette-color="primary" id="text-0"></path></svg></g></svg></g></svg></g></svg></g><g transform="matrix(1,0,0,1,24.467260504201676,0)"><svg viewBox="0 0 79.16631932773109 41.54866160870852" height="41.54866160870852" width="79.16631932773109"><g><svg xmlns="http://www.w3.org/2000/svg" xmlns:xlink="http://www.w3.org/1999/xlink" version="1.1" x="0" y="0" viewBox="5 26.381999999999998 90.001 47.23499999999998" enable-background="new 0 0 100 100" xml:space="preserve" height="41.54866160870852" width="79.16631932773109" class="icon-icon-0" data-fill-palette-color="accent" id="icon-0"><g fill="#e77917" data-fill-palette-color="accent"><path fill="none" d="M49.999 28.675c0.375 0 0.681-0.304 0.681-0.68v0C50.68 28.37 50.375 28.674 49.999 28.675c-0.375-0.001-0.68-0.305-0.68-0.681s0.305-0.68 0.68-0.68c-0.376 0-0.681 0.305-0.681 0.681S49.623 28.675 49.999 28.675z"></path><path fill="none" d="M54.303 70.682h-8.607c-0.375 0-0.68 0.305-0.68 0.68v0.001c0.001-0.374 0.305-0.679 0.68-0.679h8.607c0.375 0 0.677 0.305 0.68 0.679v-0.001C54.982 70.986 54.678 70.682 54.303 70.682z"></path><path d="M86.627 69.107c0.109-0.226 0.176-0.478 0.176-0.746V28.107c0-0.953-0.771-1.725-1.725-1.725H14.919c-0.953 0-1.725 0.771-1.725 1.725v40.254c0 0.271 0.065 0.521 0.176 0.746H5v2.785c0 0.949 0.773 1.725 1.727 1.725h86.546c0.953 0 1.728-0.773 1.728-1.725v-2.785H86.627zM49.999 27.314c0.375 0 0.681 0.305 0.681 0.68v0 0c0 0.376-0.306 0.68-0.681 0.68-0.376 0-0.681-0.304-0.681-0.68S49.623 27.314 49.999 27.314zM16.143 29.709h67.712v36.568H16.143V29.709zM54.982 71.363c0 0.378-0.305 0.683-0.68 0.683h-8.607c-0.375 0-0.68-0.305-0.68-0.683v-0.001-0.001c0-0.375 0.305-0.68 0.68-0.68h8.607c0.375 0 0.68 0.305 0.68 0.68V71.363L54.982 71.363z" fill="#ffffff" data-fill-palette-color="accent"></path><polygon points="31.736,50.861 44.194,56.648 44.194,53.898 34.772,49.771 34.772,49.719 44.194,45.592 44.194,42.84    31.736,48.628  " fill="#ffffff" data-fill-palette-color="accent"></polygon><polygon points="46.119,57.688 48.74,57.688 54.295,38.87 51.673,38.87  " fill="#ffffff" data-fill-palette-color="accent"></polygon><polygon points="55.801,45.592 65.432,49.719 65.432,49.771 55.801,53.898 55.801,56.648 68.26,50.939 68.26,48.551 55.801,42.84     " fill="#ffffff" data-fill-palette-color="accent"></polygon></g></svg></g></svg></g><g></g></svg></g><defs></defs></svg><rect width="91.22996589023552" height="247.2" fill="none" stroke="none" visibility="hidden"></rect></g></svg></g></svg>